# xmcd
#
# Track frame offsets: 
#        150
#        12522
#        26102
#        39742
#        53452
#        66612
#        81062
#        95715
#        108345
#        121215
#        135655
#        149737
#        161867
#        174802
#        187215
#        200027
#        213897
#        226352
#        239020
#        252105
#        265957
#        278205
#        290360
#        303392
#
# Disc length: 4230 seconds
#
# Revision: 2
# Processed by: cddbd v1.5.2PL0 Copyright (c) Steve Scherf et al.
# Submitted via: ExactAudioCopy v0.99pb4
#
DISCID=71108418
DTITLE=Little Walter - The Essential Little Walter [disc 1]
DYEAR=1900
DGENRE=
TTITLE0=Juke
TTITLE1=Can't Hold Out Much Longer
TTITLE2=Boogie
TTITLE3=Blue Midnight [alt.]
TTITLE4=Mean Old World
TTITLE5=Sad Hours
TTITLE6=Don't Need No Horse
TTITLE7=Tell Me Mama
TTITLE8=Off the Wall
TTITLE9=Quarter to Twelve
TTITLE10=Blues with a Feeling
TTITLE11=Too Late
TTITLE12=Fast Boogie
TTITLE13=Lights Out
TTITLE14=Fast Large One
TTITLE15=You're So Fine
TTITLE16=Oh Baby
TTITLE17=I Got to Find My Baby
TTITLE18=Last Night [first version]
TTITLE19=You Better Watch Yourself
TTITLE20=Mellow Down Easy
TTITLE21=My Babe
TTITLE22=Roller Coaster
TTITLE23=Little Girl
EXTD=
EXTT0=
EXTT1=
EXTT2=
EXTT3=
EXTT4=
EXTT5=
EXTT6=
EXTT7=
EXTT8=
EXTT9=
EXTT10=
EXTT11=
EXTT12=
EXTT13=
EXTT14=
EXTT15=
EXTT16=
EXTT17=
EXTT18=
EXTT19=
EXTT20=
EXTT21=
EXTT22=
EXTT23=
PLAYORDER=
